<svg width="481" height="435" viewBox="0 0 481 435" fill="none" xmlns="http://www.w3.org/2000/svg">
<circle cx="266" cy="220" r="214.5" fill="white" fill-opacity="0.2" stroke="#258EFD" stroke-dasharray="5 5"/>
<path d="M150.5 282.5L197.5 299.5H237.5L267 295L320 286L332.5 282.5L412 299.5" stroke="#E8FEFF"/>
<circle opacity="0.35" cx="266" cy="219" r="185" fill="#CDE6FF"/>
<mask id="mask0_38_6330" style="mask-type:alpha" maskUnits="userSpaceOnUse" x="0" y="0" width="464" height="411">
<path fill-rule="evenodd" clip-rule="evenodd" d="M464 0H0V411L255.726 403.72C259.127 403.906 262.553 404 266 404C368.173 404 451 321.173 451 219C451 192.738 445.528 167.754 435.662 145.127L464 0Z" fill="#D9D9D9"/>
</mask>
<g mask="url(#mask0_38_6330)">
<g filter="url(#filter0_d_38_6330)">
<path d="M28 25C28 21.6863 30.6863 19 34 19H430C433.314 19 436 21.6863 436 25V135C436 138.314 433.314 141 430 141H34C30.6863 141 28 138.314 28 135V25Z" fill="white"/>
<path d="M34 18C30.134 18 27 21.134 27 25V135C27 138.866 30.134 142 34 142H430C433.866 142 437 138.866 437 135V25C437 21.134 433.866 18 430 18H34Z" stroke="#CFDDE9" stroke-width="2"/>
</g>
<g filter="url(#filter1_d_38_6330)">
<path d="M28 166C28 162.686 30.6863 160 34 160H430C433.314 160 436 162.686 436 166V393C436 396.314 433.314 399 430 399H34C30.6863 399 28 396.314 28 393V166Z" fill="white"/>
<path d="M34 159C30.134 159 27 162.134 27 166V393C27 396.866 30.134 400 34 400H430C433.866 400 437 396.866 437 393V166C437 162.134 433.866 159 430 159H34Z" stroke="#CFDDE9" stroke-width="2"/>
</g>
<rect x="42" y="51" width="74" height="75" rx="19" fill="#A8C6E1" fill-opacity="0.2"/>
<rect x="124" y="51" width="74" height="75" rx="19" fill="#A8C6E1" fill-opacity="0.2"/>
<rect x="208" y="51" width="74" height="75" rx="19" fill="#A8C6E1" fill-opacity="0.2"/>
<rect x="296" y="51" width="130" height="36" rx="9" fill="#A8C6E1" fill-opacity="0.2"/>
<rect x="296" y="89" width="130" height="36" rx="9" fill="#A8C6E1" fill-opacity="0.2"/>
<line x1="153.5" y1="203" x2="153.5" y2="381" stroke="#CFDDE9" stroke-opacity="0.4"/>
<line x1="320.5" y1="204" x2="320.5" y2="382" stroke="#CFDDE9" stroke-opacity="0.4"/>
<line x1="107.5" y1="202" x2="107.5" y2="380" stroke="#CFDDE9" stroke-opacity="0.4"/>
<line x1="274.5" y1="203" x2="274.5" y2="381" stroke="#CFDDE9" stroke-opacity="0.4"/>
<line x1="61.5" y1="202" x2="61.5" y2="380" stroke="#CFDDE9" stroke-opacity="0.4"/>
<line x1="228.5" y1="203" x2="228.5" y2="381" stroke="#CFDDE9" stroke-opacity="0.4"/>
<line x1="195.5" y1="203" x2="195.5" y2="381" stroke="#CFDDE9" stroke-opacity="0.4"/>
<line x1="362.5" y1="204" x2="362.5" y2="382" stroke="#CFDDE9" stroke-opacity="0.4"/>
<line x1="402.5" y1="203" x2="402.5" y2="381" stroke="#CFDDE9" stroke-opacity="0.4"/>
<path d="M51.6756 179.662C51.6756 179.998 51.5946 180.313 51.4326 180.607C51.2766 180.901 51.0276 181.138 50.6856 181.318C50.3496 181.498 49.9236 181.588 49.4076 181.588H48.3546V184H47.0946V177.718H49.4076C49.8936 177.718 50.3076 177.802 50.6496 177.97C50.9916 178.138 51.2466 178.369 51.4146 178.663C51.5886 178.957 51.6756 179.29 51.6756 179.662ZM49.3536 180.571C49.7016 180.571 49.9596 180.493 50.1276 180.337C50.2956 180.175 50.3796 179.95 50.3796 179.662C50.3796 179.05 50.0376 178.744 49.3536 178.744H48.3546V180.571H49.3536ZM53.2092 178.42C52.9872 178.42 52.8012 178.351 52.6512 178.213C52.5072 178.069 52.4352 177.892 52.4352 177.682C52.4352 177.472 52.5072 177.298 52.6512 177.16C52.8012 177.016 52.9872 176.944 53.2092 176.944C53.4312 176.944 53.6142 177.016 53.7582 177.16C53.9082 177.298 53.9832 177.472 53.9832 177.682C53.9832 177.892 53.9082 178.069 53.7582 178.213C53.6142 178.351 53.4312 178.42 53.2092 178.42ZM53.8302 179.014V184H52.5702V179.014H53.8302ZM56.3351 179.734C56.4971 179.506 56.7191 179.317 57.0011 179.167C57.2891 179.011 57.6161 178.933 57.9821 178.933C58.4081 178.933 58.7921 179.038 59.1341 179.248C59.4821 179.458 59.7551 179.758 59.9531 180.148C60.1571 180.532 60.2591 180.979 60.2591 181.489C60.2591 181.999 60.1571 182.452 59.9531 182.848C59.7551 183.238 59.4821 183.541 59.1341 183.757C58.7921 183.973 58.4081 184.081 57.9821 184.081C57.6161 184.081 57.2921 184.006 57.0101 183.856C56.7341 183.706 56.5091 183.517 56.3351 183.289V186.376H55.0751V179.014H56.3351V179.734ZM58.9721 181.489C58.9721 181.189 58.9091 180.931 58.7831 180.715C58.6631 180.493 58.5011 180.325 58.2971 180.211C58.0991 180.097 57.8831 180.04 57.6491 180.04C57.4211 180.04 57.2051 180.1 57.0011 180.22C56.8031 180.334 56.6411 180.502 56.5151 180.724C56.3951 180.946 56.3351 181.207 56.3351 181.507C56.3351 181.807 56.3951 182.068 56.5151 182.29C56.6411 182.512 56.8031 182.683 57.0011 182.803C57.2051 182.917 57.4211 182.974 57.6491 182.974C57.8831 182.974 58.0991 182.914 58.2971 182.794C58.5011 182.674 58.6631 182.503 58.7831 182.281C58.9091 182.059 58.9721 181.795 58.9721 181.489ZM65.8097 181.399C65.8097 181.579 65.7977 181.741 65.7737 181.885H62.1287C62.1587 182.245 62.2847 182.527 62.5067 182.731C62.7287 182.935 63.0017 183.037 63.3257 183.037C63.7937 183.037 64.1267 182.836 64.3247 182.434H65.6837C65.5397 182.914 65.2637 183.31 64.8557 183.622C64.4477 183.928 63.9467 184.081 63.3527 184.081C62.8727 184.081 62.4407 183.976 62.0567 183.766C61.6787 183.55 61.3817 183.247 61.1657 182.857C60.9557 182.467 60.8507 182.017 60.8507 181.507C60.8507 180.991 60.9557 180.538 61.1657 180.148C61.3757 179.758 61.6697 179.458 62.0477 179.248C62.4257 179.038 62.8607 178.933 63.3527 178.933C63.8267 178.933 64.2497 179.035 64.6217 179.239C64.9997 179.443 65.2907 179.734 65.4947 180.112C65.7047 180.484 65.8097 180.913 65.8097 181.399ZM64.5047 181.039C64.4987 180.715 64.3817 180.457 64.1537 180.265C63.9257 180.067 63.6467 179.968 63.3167 179.968C63.0047 179.968 62.7407 180.064 62.5247 180.256C62.3147 180.442 62.1857 180.703 62.1377 181.039H64.5047ZM67.9894 177.34V184H66.7294V177.34H67.9894ZM69.8733 178.42C69.6513 178.42 69.4653 178.351 69.3153 178.213C69.1713 178.069 69.0993 177.892 69.0993 177.682C69.0993 177.472 69.1713 177.298 69.3153 177.16C69.4653 177.016 69.6513 176.944 69.8733 176.944C70.0953 176.944 70.2783 177.016 70.4223 177.16C70.5723 177.298 70.6473 177.472 70.6473 177.682C70.6473 177.892 70.5723 178.069 70.4223 178.213C70.2783 178.351 70.0953 178.42 69.8733 178.42ZM70.4943 179.014V184H69.2343V179.014H70.4943ZM74.5022 178.942C75.0962 178.942 75.5762 179.131 75.9422 179.509C76.3082 179.881 76.4912 180.403 76.4912 181.075V184H75.2312V181.246C75.2312 180.85 75.1322 180.547 74.9342 180.337C74.7362 180.121 74.4662 180.013 74.1242 180.013C73.7762 180.013 73.5002 180.121 73.2962 180.337C73.0982 180.547 72.9992 180.85 72.9992 181.246V184H71.7392V179.014H72.9992V179.635C73.1672 179.419 73.3802 179.251 73.6382 179.131C73.9022 179.005 74.1902 178.942 74.5022 178.942ZM82.3244 181.399C82.3244 181.579 82.3124 181.741 82.2884 181.885H78.6434C78.6734 182.245 78.7994 182.527 79.0214 182.731C79.2434 182.935 79.5164 183.037 79.8404 183.037C80.3084 183.037 80.6414 182.836 80.8394 182.434H82.1984C82.0544 182.914 81.7784 183.31 81.3704 183.622C80.9624 183.928 80.4614 184.081 79.8674 184.081C79.3874 184.081 78.9554 183.976 78.5714 183.766C78.1934 183.55 77.8964 183.247 77.6804 182.857C77.4704 182.467 77.3654 182.017 77.3654 181.507C77.3654 180.991 77.4704 180.538 77.6804 180.148C77.8904 179.758 78.1844 179.458 78.5624 179.248C78.9404 179.038 79.3754 178.933 79.8674 178.933C80.3414 178.933 80.7644 179.035 81.1364 179.239C81.5144 179.443 81.8054 179.734 82.0094 180.112C82.2194 180.484 82.3244 180.913 82.3244 181.399ZM81.0194 181.039C81.0134 180.715 80.8964 180.457 80.6684 180.265C80.4404 180.067 80.1614 179.968 79.8314 179.968C79.5194 179.968 79.2554 180.064 79.0394 180.256C78.8294 180.442 78.7004 180.703 78.6524 181.039H81.0194ZM89.2406 182.803H86.7386L86.3246 184H85.0016L87.2606 177.709H88.7276L90.9866 184H89.6546L89.2406 182.803ZM88.8986 181.795L87.9896 179.167L87.0806 181.795H88.8986ZM94.594 178.942C95.188 178.942 95.668 179.131 96.034 179.509C96.4 179.881 96.583 180.403 96.583 181.075V184H95.323V181.246C95.323 180.85 95.224 180.547 95.026 180.337C94.828 180.121 94.558 180.013 94.216 180.013C93.868 180.013 93.592 180.121 93.388 180.337C93.19 180.547 93.091 180.85 93.091 181.246V184H91.831V179.014H93.091V179.635C93.259 179.419 93.472 179.251 93.73 179.131C93.994 179.005 94.282 178.942 94.594 178.942ZM97.4572 181.489C97.4572 180.985 97.5562 180.538 97.7542 180.148C97.9582 179.758 98.2312 179.458 98.5732 179.248C98.9212 179.038 99.3082 178.933 99.7342 178.933C100.106 178.933 100.43 179.008 100.706 179.158C100.988 179.308 101.213 179.497 101.381 179.725V179.014H102.65V184H101.381V183.271C101.219 183.505 100.994 183.7 100.706 183.856C100.424 184.006 100.097 184.081 99.7252 184.081C99.3052 184.081 98.9212 183.973 98.5732 183.757C98.2312 183.541 97.9582 183.238 97.7542 182.848C97.5562 182.452 97.4572 181.999 97.4572 181.489ZM101.381 181.507C101.381 181.201 101.321 180.94 101.201 180.724C101.081 180.502 100.919 180.334 100.715 180.22C100.511 180.1 100.292 180.04 100.058 180.04C99.8242 180.04 99.6082 180.097 99.4102 180.211C99.2122 180.325 99.0502 180.493 98.9242 180.715C98.8042 180.931 98.7442 181.189 98.7442 181.489C98.7442 181.789 98.8042 182.053 98.9242 182.281C99.0502 182.503 99.2122 182.674 99.4102 182.794C99.6142 182.914 99.8302 182.974 100.058 182.974C100.292 182.974 100.511 182.917 100.715 182.803C100.919 182.683 101.081 182.515 101.201 182.299C101.321 182.077 101.381 181.813 101.381 181.507ZM105.141 177.34V184H103.881V177.34H105.141ZM111.156 179.014L108.069 186.358H106.728L107.808 183.874L105.81 179.014H107.223L108.51 182.497L109.815 179.014H111.156ZM113.302 180.049V182.461C113.302 182.629 113.341 182.752 113.419 182.83C113.503 182.902 113.641 182.938 113.833 182.938H114.418V184H113.626C112.564 184 112.033 183.484 112.033 182.452V180.049H111.439V179.014H112.033V177.781H113.302V179.014H114.418V180.049H113.302ZM115.963 178.42C115.741 178.42 115.555 178.351 115.405 178.213C115.261 178.069 115.189 177.892 115.189 177.682C115.189 177.472 115.261 177.298 115.405 177.16C115.555 177.016 115.741 176.944 115.963 176.944C116.185 176.944 116.368 177.016 116.512 177.16C116.662 177.298 116.737 177.472 116.737 177.682C116.737 177.892 116.662 178.069 116.512 178.213C116.368 178.351 116.185 178.42 115.963 178.42ZM116.584 179.014V184H115.324V179.014H116.584ZM117.505 181.507C117.505 180.991 117.61 180.541 117.82 180.157C118.03 179.767 118.321 179.467 118.693 179.257C119.065 179.041 119.491 178.933 119.971 178.933C120.589 178.933 121.099 179.089 121.501 179.401C121.909 179.707 122.182 180.139 122.32 180.697H120.961C120.889 180.481 120.766 180.313 120.592 180.193C120.424 180.067 120.214 180.004 119.962 180.004C119.602 180.004 119.317 180.136 119.107 180.4C118.897 180.658 118.792 181.027 118.792 181.507C118.792 181.981 118.897 182.35 119.107 182.614C119.317 182.872 119.602 183.001 119.962 183.001C120.472 183.001 120.805 182.773 120.961 182.317H122.32C122.182 182.857 121.909 183.286 121.501 183.604C121.093 183.922 120.583 184.081 119.971 184.081C119.491 184.081 119.065 183.976 118.693 183.766C118.321 183.55 118.03 183.25 117.82 182.866C117.61 182.476 117.505 182.023 117.505 181.507ZM125.151 184.081C124.743 184.081 124.377 184.009 124.053 183.865C123.729 183.715 123.471 183.514 123.279 183.262C123.093 183.01 122.991 182.731 122.973 182.425H124.242C124.266 182.617 124.359 182.776 124.521 182.902C124.689 183.028 124.896 183.091 125.142 183.091C125.382 183.091 125.568 183.043 125.7 182.947C125.838 182.851 125.907 182.728 125.907 182.578C125.907 182.416 125.823 182.296 125.655 182.218C125.493 182.134 125.232 182.044 124.872 181.948C124.5 181.858 124.194 181.765 123.954 181.669C123.72 181.573 123.516 181.426 123.342 181.228C123.174 181.03 123.09 180.763 123.09 180.427C123.09 180.151 123.168 179.899 123.324 179.671C123.486 179.443 123.714 179.263 124.008 179.131C124.308 178.999 124.659 178.933 125.061 178.933C125.655 178.933 126.129 179.083 126.483 179.383C126.837 179.677 127.032 180.076 127.068 180.58H125.862C125.844 180.382 125.76 180.226 125.61 180.112C125.466 179.992 125.271 179.932 125.025 179.932C124.797 179.932 124.62 179.974 124.494 180.058C124.374 180.142 124.314 180.259 124.314 180.409C124.314 180.577 124.398 180.706 124.566 180.796C124.734 180.88 124.995 180.967 125.349 181.057C125.709 181.147 126.006 181.24 126.24 181.336C126.474 181.432 126.675 181.582 126.843 181.786C127.017 181.984 127.107 182.248 127.113 182.578C127.113 182.866 127.032 183.124 126.87 183.352C126.714 183.58 126.486 183.76 126.186 183.892C125.892 184.018 125.547 184.081 125.151 184.081Z" fill="#00204E" fill-opacity="0.58"/>
<path d="M46.9025 34.735V36.31H49.0175V37.309H46.9025V38.974H49.2875V40H45.6425V33.709H49.2875V34.735H46.9025ZM53.1865 40L52.1605 38.452L51.2515 40H49.9015L51.5305 37.498L49.8835 35.014H51.3055L52.3225 36.553L53.2405 35.014H54.5905L52.9525 37.498L54.6085 40H53.1865ZM59.9279 37.399C59.9279 37.579 59.9159 37.741 59.8919 37.885H56.2469C56.2769 38.245 56.4029 38.527 56.6249 38.731C56.8469 38.935 57.1199 39.037 57.4439 39.037C57.9119 39.037 58.2449 38.836 58.4429 38.434H59.8019C59.6579 38.914 59.3819 39.31 58.9739 39.622C58.5659 39.928 58.0649 40.081 57.4709 40.081C56.9909 40.081 56.5589 39.976 56.1749 39.766C55.7969 39.55 55.4999 39.247 55.2839 38.857C55.0739 38.467 54.9689 38.017 54.9689 37.507C54.9689 36.991 55.0739 36.538 55.2839 36.148C55.4939 35.758 55.7879 35.458 56.1659 35.248C56.5439 35.038 56.9789 34.933 57.4709 34.933C57.9449 34.933 58.3679 35.035 58.7399 35.239C59.1179 35.443 59.4089 35.734 59.6129 36.112C59.8229 36.484 59.9279 36.913 59.9279 37.399ZM58.6229 37.039C58.6169 36.715 58.4999 36.457 58.2719 36.265C58.0439 36.067 57.7649 35.968 57.4349 35.968C57.1229 35.968 56.8589 36.064 56.6429 36.256C56.4329 36.442 56.3039 36.703 56.2559 37.039H58.6229ZM60.5236 37.507C60.5236 36.991 60.6286 36.541 60.8386 36.157C61.0486 35.767 61.3396 35.467 61.7116 35.257C62.0836 35.041 62.5096 34.933 62.9896 34.933C63.6076 34.933 64.1176 35.089 64.5196 35.401C64.9276 35.707 65.2006 36.139 65.3386 36.697H63.9796C63.9076 36.481 63.7846 36.313 63.6106 36.193C63.4426 36.067 63.2326 36.004 62.9806 36.004C62.6206 36.004 62.3356 36.136 62.1256 36.4C61.9156 36.658 61.8106 37.027 61.8106 37.507C61.8106 37.981 61.9156 38.35 62.1256 38.614C62.3356 38.872 62.6206 39.001 62.9806 39.001C63.4906 39.001 63.8236 38.773 63.9796 38.317H65.3386C65.2006 38.857 64.9276 39.286 64.5196 39.604C64.1116 39.922 63.6016 40.081 62.9896 40.081C62.5096 40.081 62.0836 39.976 61.7116 39.766C61.3396 39.55 61.0486 39.25 60.8386 38.866C60.6286 38.476 60.5236 38.023 60.5236 37.507ZM71.3222 40.063C70.7342 40.063 70.1942 39.925 69.7022 39.649C69.2102 39.373 68.8202 38.992 68.5322 38.506C68.2442 38.014 68.1002 37.459 68.1002 36.841C68.1002 36.229 68.2442 35.68 68.5322 35.194C68.8202 34.702 69.2102 34.318 69.7022 34.042C70.1942 33.766 70.7342 33.628 71.3222 33.628C71.9162 33.628 72.4562 33.766 72.9422 34.042C73.4342 34.318 73.8212 34.702 74.1032 35.194C74.3912 35.68 74.5352 36.229 74.5352 36.841C74.5352 37.459 74.3912 38.014 74.1032 38.506C73.8212 38.992 73.4342 39.373 72.9422 39.649C72.4502 39.925 71.9102 40.063 71.3222 40.063ZM71.3222 38.938C71.7002 38.938 72.0332 38.854 72.3212 38.686C72.6092 38.512 72.8342 38.266 72.9962 37.948C73.1582 37.63 73.2392 37.261 73.2392 36.841C73.2392 36.421 73.1582 36.055 72.9962 35.743C72.8342 35.425 72.6092 35.182 72.3212 35.014C72.0332 34.846 71.7002 34.762 71.3222 34.762C70.9442 34.762 70.6082 34.846 70.3142 35.014C70.0262 35.182 69.8012 35.425 69.6392 35.743C69.4772 36.055 69.3962 36.421 69.3962 36.841C69.3962 37.261 69.4772 37.63 69.6392 37.948C69.8012 38.266 70.0262 38.512 70.3142 38.686C70.6082 38.854 70.9442 38.938 71.3222 38.938ZM77.5516 38.839L78.8116 35.014H80.1526L78.3076 40H76.7776L74.9416 35.014H76.2916L77.5516 38.839ZM85.4953 37.399C85.4953 37.579 85.4833 37.741 85.4593 37.885H81.8143C81.8443 38.245 81.9703 38.527 82.1923 38.731C82.4143 38.935 82.6873 39.037 83.0113 39.037C83.4793 39.037 83.8123 38.836 84.0103 38.434H85.3693C85.2253 38.914 84.9493 39.31 84.5413 39.622C84.1333 39.928 83.6323 40.081 83.0383 40.081C82.5583 40.081 82.1263 39.976 81.7423 39.766C81.3643 39.55 81.0673 39.247 80.8513 38.857C80.6413 38.467 80.5363 38.017 80.5363 37.507C80.5363 36.991 80.6413 36.538 80.8513 36.148C81.0613 35.758 81.3553 35.458 81.7333 35.248C82.1113 35.038 82.5463 34.933 83.0383 34.933C83.5123 34.933 83.9353 35.035 84.3073 35.239C84.6853 35.443 84.9763 35.734 85.1803 36.112C85.3903 36.484 85.4953 36.913 85.4953 37.399ZM84.1903 37.039C84.1843 36.715 84.0673 36.457 83.8393 36.265C83.6113 36.067 83.3323 35.968 83.0023 35.968C82.6903 35.968 82.4263 36.064 82.2103 36.256C82.0003 36.442 81.8713 36.703 81.8233 37.039H84.1903ZM87.6749 35.788C87.8369 35.524 88.0469 35.317 88.3049 35.167C88.5689 35.017 88.8689 34.942 89.2049 34.942V36.265H88.8719C88.4759 36.265 88.1759 36.358 87.9719 36.544C87.7739 36.73 87.6749 37.054 87.6749 37.516V40H86.4149V35.014H87.6749V35.788ZM92.1326 38.839L93.3926 35.014H94.7336L92.8886 40H91.3586L89.5226 35.014H90.8726L92.1326 38.839ZM96.0803 34.42C95.8583 34.42 95.6723 34.351 95.5223 34.213C95.3783 34.069 95.3063 33.892 95.3063 33.682C95.3063 33.472 95.3783 33.298 95.5223 33.16C95.6723 33.016 95.8583 32.944 96.0803 32.944C96.3023 32.944 96.4853 33.016 96.6293 33.16C96.7793 33.298 96.8543 33.472 96.8543 33.682C96.8543 33.892 96.7793 34.069 96.6293 34.213C96.4853 34.351 96.3023 34.42 96.0803 34.42ZM96.7013 35.014V40H95.4413V35.014H96.7013ZM102.581 37.399C102.581 37.579 102.569 37.741 102.545 37.885H98.9002C98.9302 38.245 99.0562 38.527 99.2782 38.731C99.5002 38.935 99.7732 39.037 100.097 39.037C100.565 39.037 100.898 38.836 101.096 38.434H102.455C102.311 38.914 102.035 39.31 101.627 39.622C101.219 39.928 100.718 40.081 100.124 40.081C99.6442 40.081 99.2122 39.976 98.8282 39.766C98.4502 39.55 98.1532 39.247 97.9372 38.857C97.7272 38.467 97.6222 38.017 97.6222 37.507C97.6222 36.991 97.7272 36.538 97.9372 36.148C98.1472 35.758 98.4412 35.458 98.8192 35.248C99.1972 35.038 99.6322 34.933 100.124 34.933C100.598 34.933 101.021 35.035 101.393 35.239C101.771 35.443 102.062 35.734 102.266 36.112C102.476 36.484 102.581 36.913 102.581 37.399ZM101.276 37.039C101.27 36.715 101.153 36.457 100.925 36.265C100.697 36.067 100.418 35.968 100.088 35.968C99.7762 35.968 99.5122 36.064 99.2962 36.256C99.0862 36.442 98.9572 36.703 98.9092 37.039H101.276ZM110.413 35.014L108.955 40H107.596L106.687 36.517L105.778 40H104.41L102.943 35.014H104.221L105.103 38.812L106.057 35.014H107.389L108.325 38.803L109.207 35.014H110.413ZM116.803 36.778C117.157 36.844 117.448 37.021 117.676 37.309C117.904 37.597 118.018 37.927 118.018 38.299C118.018 38.635 117.934 38.932 117.766 39.19C117.604 39.442 117.367 39.64 117.055 39.784C116.743 39.928 116.374 40 115.948 40H113.239V33.718H115.831C116.257 33.718 116.623 33.787 116.929 33.925C117.241 34.063 117.475 34.255 117.631 34.501C117.793 34.747 117.874 35.026 117.874 35.338C117.874 35.704 117.775 36.01 117.577 36.256C117.385 36.502 117.127 36.676 116.803 36.778ZM114.499 36.31H115.651C115.951 36.31 116.182 36.244 116.344 36.112C116.506 35.974 116.587 35.779 116.587 35.527C116.587 35.275 116.506 35.08 116.344 34.942C116.182 34.804 115.951 34.735 115.651 34.735H114.499V36.31ZM115.768 38.974C116.074 38.974 116.311 38.902 116.479 38.758C116.653 38.614 116.74 38.41 116.74 38.146C116.74 37.876 116.65 37.666 116.47 37.516C116.29 37.36 116.047 37.282 115.741 37.282H114.499V38.974H115.768ZM121.236 40.081C120.756 40.081 120.324 39.976 119.94 39.766C119.556 39.55 119.253 39.247 119.031 38.857C118.815 38.467 118.707 38.017 118.707 37.507C118.707 36.997 118.818 36.547 119.04 36.157C119.268 35.767 119.577 35.467 119.967 35.257C120.357 35.041 120.792 34.933 121.272 34.933C121.752 34.933 122.187 35.041 122.577 35.257C122.967 35.467 123.273 35.767 123.495 36.157C123.723 36.547 123.837 36.997 123.837 37.507C123.837 38.017 123.72 38.467 123.486 38.857C123.258 39.247 122.946 39.55 122.55 39.766C122.16 39.976 121.722 40.081 121.236 40.081ZM121.236 38.983C121.464 38.983 121.677 38.929 121.875 38.821C122.079 38.707 122.241 38.539 122.361 38.317C122.481 38.095 122.541 37.825 122.541 37.507C122.541 37.033 122.415 36.67 122.163 36.418C121.917 36.16 121.614 36.031 121.254 36.031C120.894 36.031 120.591 36.16 120.345 36.418C120.105 36.67 119.985 37.033 119.985 37.507C119.985 37.981 120.102 38.347 120.336 38.605C120.576 38.857 120.876 38.983 121.236 38.983ZM124.438 37.489C124.438 36.985 124.537 36.538 124.735 36.148C124.939 35.758 125.212 35.458 125.554 35.248C125.902 35.038 126.289 34.933 126.715 34.933C127.087 34.933 127.411 35.008 127.687 35.158C127.969 35.308 128.194 35.497 128.362 35.725V35.014H129.631V40H128.362V39.271C128.2 39.505 127.975 39.7 127.687 39.856C127.405 40.006 127.078 40.081 126.706 40.081C126.286 40.081 125.902 39.973 125.554 39.757C125.212 39.541 124.939 39.238 124.735 38.848C124.537 38.452 124.438 37.999 124.438 37.489ZM128.362 37.507C128.362 37.201 128.302 36.94 128.182 36.724C128.062 36.502 127.9 36.334 127.696 36.22C127.492 36.1 127.273 36.04 127.039 36.04C126.805 36.04 126.589 36.097 126.391 36.211C126.193 36.325 126.031 36.493 125.905 36.715C125.785 36.931 125.725 37.189 125.725 37.489C125.725 37.789 125.785 38.053 125.905 38.281C126.031 38.503 126.193 38.674 126.391 38.794C126.595 38.914 126.811 38.974 127.039 38.974C127.273 38.974 127.492 38.917 127.696 38.803C127.9 38.683 128.062 38.515 128.182 38.299C128.302 38.077 128.362 37.813 128.362 37.507ZM132.121 35.788C132.283 35.524 132.493 35.317 132.751 35.167C133.015 35.017 133.315 34.942 133.651 34.942V36.265H133.318C132.922 36.265 132.622 36.358 132.418 36.544C132.22 36.73 132.121 37.054 132.121 37.516V40H130.861V35.014H132.121V35.788ZM134.176 37.489C134.176 36.985 134.275 36.538 134.473 36.148C134.677 35.758 134.953 35.458 135.301 35.248C135.649 35.038 136.036 34.933 136.462 34.933C136.786 34.933 137.095 35.005 137.389 35.149C137.683 35.287 137.917 35.473 138.091 35.707V33.34H139.369V40H138.091V39.262C137.935 39.508 137.716 39.706 137.434 39.856C137.152 40.006 136.825 40.081 136.453 40.081C136.033 40.081 135.649 39.973 135.301 39.757C134.953 39.541 134.677 39.238 134.473 38.848C134.275 38.452 134.176 37.999 134.176 37.489ZM138.1 37.507C138.1 37.201 138.04 36.94 137.92 36.724C137.8 36.502 137.638 36.334 137.434 36.22C137.23 36.1 137.011 36.04 136.777 36.04C136.543 36.04 136.327 36.097 136.129 36.211C135.931 36.325 135.769 36.493 135.643 36.715C135.523 36.931 135.463 37.189 135.463 37.489C135.463 37.789 135.523 38.053 135.643 38.281C135.769 38.503 135.931 38.674 136.129 38.794C136.333 38.914 136.549 38.974 136.777 38.974C137.011 38.974 137.23 38.917 137.434 38.803C137.638 38.683 137.8 38.515 137.92 38.299C138.04 38.077 138.1 37.813 138.1 37.507Z" fill="#00204E" fill-opacity="0.58"/>
<rect x="45" y="209" width="336" height="10" rx="5" fill="#52A8FF"/>
<rect x="45" y="282" width="129" height="10" rx="5" fill="#743FCF"/>
<rect x="45" y="227" width="297" height="10" rx="5" fill="#52A8FF"/>
<rect x="45" y="300" width="106" height="10" rx="5" fill="#64D2D8"/>
<rect x="45" y="246" width="227" height="10" rx="5" fill="#52A8FF"/>
<rect x="45" y="319" width="106" height="10" rx="5" fill="#64D2D8"/>
<rect x="45" y="263" width="147" height="10" rx="5" fill="#743FCF"/>
<rect x="45" y="336" width="66" height="10" rx="5" fill="#DA1F1F" fill-opacity="0.75"/>
<rect x="46" y="354" width="34" height="10" rx="5" fill="#52A8FF"/>
<rect x="304" y="58" width="29" height="10" rx="5" fill="#A8C6E1" fill-opacity="0.2"/>
<rect x="304" y="94" width="29" height="10" rx="5" fill="#A8C6E1" fill-opacity="0.2"/>
<rect x="304" y="71" width="47" height="12" rx="6" fill="#A8C6E1" fill-opacity="0.2"/>
<rect x="304" y="107" width="47" height="12" rx="6" fill="#A8C6E1" fill-opacity="0.2"/>
<path fill-rule="evenodd" clip-rule="evenodd" d="M256.538 70.1154C256.538 69.6643 256.267 69.2576 255.85 69.0849C255.433 68.9123 254.953 69.0077 254.634 69.3267L250.173 73.7883C249.964 73.9974 249.846 74.2811 249.846 74.577V78.5765L243.481 84.9421C243.045 85.3777 243.045 86.0839 243.481 86.5195C243.916 86.9551 244.622 86.9551 245.058 86.5195L251.424 80.1539H255.423C255.719 80.1539 256.003 80.0364 256.212 79.8272L260.673 75.3657C260.992 75.0467 261.088 74.5669 260.915 74.1501C260.742 73.7333 260.336 73.4616 259.885 73.4616H256.538V70.1154ZM232 85.7308C232 78.9547 237.493 73.4615 244.269 73.4615C245.108 73.4615 245.928 73.5459 246.722 73.7069C247.326 73.8295 247.716 74.4182 247.593 75.0219C247.471 75.6256 246.882 76.0157 246.278 75.8931C245.63 75.7616 244.958 75.6923 244.269 75.6923C238.725 75.6923 234.231 80.1867 234.231 85.7308C234.231 91.2749 238.725 95.7692 244.269 95.7692C249.813 95.7692 254.308 91.2749 254.308 85.7308C254.308 85.0417 254.238 84.3701 254.107 83.7219C253.984 83.1182 254.374 82.5295 254.978 82.4069C255.582 82.2844 256.17 82.6744 256.293 83.2781C256.454 84.0715 256.538 84.8919 256.538 85.7308C256.538 92.5069 251.045 98 244.269 98C237.493 98 232 92.5069 232 85.7308ZM237.577 85.7308C237.577 82.0347 240.573 79.0385 244.269 79.0385C244.885 79.0385 245.385 79.5378 245.385 80.1538C245.385 80.7699 244.885 81.2692 244.269 81.2692C241.805 81.2692 239.808 83.2667 239.808 85.7308C239.808 88.1948 241.805 90.1923 244.269 90.1923C246.733 90.1923 248.731 88.1948 248.731 85.7308C248.731 85.1148 249.23 84.6154 249.846 84.6154C250.462 84.6154 250.962 85.1148 250.962 85.7308C250.962 89.4268 247.965 92.4231 244.269 92.4231C240.573 92.4231 237.577 89.4268 237.577 85.7308Z" fill="#31C716"/>
</g>
<g clip-path="url(#clip0_38_6330)">
<path d="M86.375 75.25H85.25V74.125C85.25 73.504 84.746 73 84.125 73C83.504 73 83 73.504 83 74.125V75.25H74V74.125C74 73.504 73.496 73 72.875 73C72.254 73 71.75 73.504 71.75 74.125V75.25H70.625C67.5234 75.25 65 77.7734 65 80.875V94.375C65 97.4766 67.5234 100 70.625 100H86.375C89.4766 100 92 97.4766 92 94.375V80.875C92 77.7734 89.4766 75.25 86.375 75.25ZM86.375 97.75H70.625C68.7643 97.75 67.25 96.2358 67.25 94.375V84.25H74C74.621 84.25 75.125 83.746 75.125 83.125C75.125 82.504 74.621 82 74 82H67.25V80.875C67.25 79.0142 68.7643 77.5 70.625 77.5H86.375C88.2358 77.5 89.75 79.0142 89.75 80.875V82H83C82.379 82 81.875 82.504 81.875 83.125C81.875 83.746 82.379 84.25 83 84.25H89.75V94.375C89.75 96.2358 88.2358 97.75 86.375 97.75ZM79.625 83.125V91C79.625 91.621 79.121 92.125 78.5 92.125C77.879 92.125 77.375 91.621 77.375 91V83.125C77.375 82.504 77.879 82 78.5 82C79.121 82 79.625 82.504 79.625 83.125ZM79.625 94.375C79.625 94.996 79.121 95.5 78.5 95.5C77.879 95.5 77.375 94.996 77.375 94.375C77.375 93.754 77.879 93.25 78.5 93.25C79.121 93.25 79.625 93.754 79.625 94.375Z" fill="#DA1F1F"/>
</g>
<path d="M172.965 90.2463L163.875 75.8912C163.11 74.7887 161.839 74.125 160.5 74.125C159.161 74.125 157.89 74.7775 157.091 75.925L148.046 90.2238C146.899 91.8663 146.685 93.835 147.484 95.3538C148.271 96.8725 149.925 97.7388 151.995 97.7388H169.005C171.086 97.7388 172.729 96.8725 173.516 95.3538C174.304 93.835 174.09 91.8775 172.965 90.2463ZM159.375 80.875C159.375 80.2562 159.881 79.75 160.5 79.75C161.119 79.75 161.625 80.2562 161.625 80.875V87.625C161.625 88.2437 161.119 88.75 160.5 88.75C159.881 88.75 159.375 88.2437 159.375 87.625V80.875ZM160.5 94.375C159.566 94.375 158.813 93.6213 158.813 92.6875C158.813 91.7537 159.566 91 160.5 91C161.434 91 162.188 91.7537 162.188 92.6875C162.188 93.6213 161.434 94.375 160.5 94.375Z" fill="#FEDA5A"/>
<defs>
<filter id="filter0_d_38_6330" x="2" y="5" width="460" height="174" filterUnits="userSpaceOnUse" color-interpolation-filters="sRGB">
<feFlood flood-opacity="0" result="BackgroundImageFix"/>
<feColorMatrix in="SourceAlpha" type="matrix" values="0 0 0 0 0 0 0 0 0 0 0 0 0 0 0 0 0 0 127 0" result="hardAlpha"/>
<feOffset dy="12"/>
<feGaussianBlur stdDeviation="12"/>
<feColorMatrix type="matrix" values="0 0 0 0 0.105882 0 0 0 0 0.152941 0 0 0 0 0.2 0 0 0 0.06 0"/>
<feBlend mode="normal" in2="BackgroundImageFix" result="effect1_dropShadow_38_6330"/>
<feBlend mode="normal" in="SourceGraphic" in2="effect1_dropShadow_38_6330" result="shape"/>
</filter>
<filter id="filter1_d_38_6330" x="2" y="146" width="460" height="291" filterUnits="userSpaceOnUse" color-interpolation-filters="sRGB">
<feFlood flood-opacity="0" result="BackgroundImageFix"/>
<feColorMatrix in="SourceAlpha" type="matrix" values="0 0 0 0 0 0 0 0 0 0 0 0 0 0 0 0 0 0 127 0" result="hardAlpha"/>
<feOffset dy="12"/>
<feGaussianBlur stdDeviation="12"/>
<feColorMatrix type="matrix" values="0 0 0 0 0.105882 0 0 0 0 0.152941 0 0 0 0 0.2 0 0 0 0.06 0"/>
<feBlend mode="normal" in2="BackgroundImageFix" result="effect1_dropShadow_38_6330"/>
<feBlend mode="normal" in="SourceGraphic" in2="effect1_dropShadow_38_6330" result="shape"/>
</filter>
<clipPath id="clip0_38_6330">
<rect width="27" height="27" fill="white" transform="translate(65 73)"/>
</clipPath>
</defs>
</svg>
