<svg width="2635" height="544" viewBox="0 0 2635 544" fill="none" xmlns="http://www.w3.org/2000/svg">
<path d="M123.282 521.408V494.208C123.282 491.203 125.717 488.768 128.722 488.768H365.282C367.039 488.768 368.688 489.616 369.709 491.046L389.138 518.246C391.709 521.846 389.136 526.848 384.711 526.848H128.722C125.717 526.848 123.282 524.412 123.282 521.408Z" fill="#F76454"/>
<path fill-rule="evenodd" clip-rule="evenodd" d="M228.791 353.946L366.73 413.344L384.26 264.183L309.88 135.296L166.884 86.8982L97.6781 126.854L228.791 353.946ZM82.0869 110.73C74.2811 115.236 71.6067 125.218 76.1134 133.023L210.849 366.389C212.606 369.432 215.299 371.828 218.528 373.218L364.827 436.216C374.856 440.534 386.215 433.976 387.49 423.131L406.082 264.932C406.492 261.442 405.765 257.913 404.009 254.87L327.702 122.644C325.72 119.209 322.555 116.614 318.799 115.342L171.528 65.4975C167.081 63.9925 162.202 64.4752 158.136 66.8226L82.0869 110.73Z" fill="#F76454"/>
<path fill-rule="evenodd" clip-rule="evenodd" d="M223.04 170.971L165.999 75.9636L145.326 87.8315L204.871 187.287C210.15 196.104 221.473 199.141 230.455 194.149L328.418 139.712L316.76 118.268L223.04 170.971Z" fill="#F76454"/>
<path d="M292.822 269.313L278.709 277.461C276.103 278.965 275.213 282.299 276.723 284.902L415.47 524.137C416.443 525.815 418.236 526.848 420.176 526.848L437.566 526.848C441.748 526.848 444.366 522.326 442.284 518.699L300.259 271.316C298.761 268.706 295.428 267.808 292.822 269.313Z" fill="#F76454"/>
<path d="M775.464 420.095C748.606 420.095 725.727 414.251 706.827 402.563C687.927 390.751 673.441 374.337 663.369 353.323C653.422 332.309 648.448 307.938 648.448 280.21C648.448 252.481 653.422 228.11 663.369 207.096C673.441 186.082 687.927 169.731 706.827 158.043C725.727 146.23 748.606 140.324 775.464 140.324C806.426 140.324 832.04 148.158 852.308 163.825C872.7 179.492 886.875 200.568 894.833 227.053L855.292 237.684C850.07 218.909 840.744 204.174 827.315 193.481C814.011 182.787 796.727 177.44 775.464 177.44C756.44 177.44 740.586 181.73 727.903 190.31C715.22 198.889 705.646 210.889 699.18 226.307C692.838 241.726 689.668 259.693 689.668 280.21C689.543 300.726 692.652 318.694 698.993 334.112C705.459 349.531 715.034 361.53 727.717 370.11C740.524 378.689 756.44 382.979 775.464 382.979C796.727 382.979 814.011 377.632 827.315 366.939C840.744 356.121 850.07 341.386 855.292 322.735L894.833 333.366C886.875 359.851 872.7 380.927 852.308 396.595C832.04 412.262 806.426 420.095 775.464 420.095ZM992.742 420.095C977.821 420.095 965.324 417.36 955.252 411.889C945.181 406.293 937.533 398.957 932.311 389.88C927.213 380.679 924.664 370.607 924.664 359.665C924.664 349.469 926.467 340.516 930.073 332.807C933.679 325.097 939.026 318.569 946.113 313.223C953.201 307.752 961.905 303.337 972.225 299.98C981.178 297.369 991.312 295.069 1002.63 293.079C1013.94 291.09 1025.82 289.225 1038.25 287.484C1050.81 285.743 1063.24 284.002 1075.55 282.261L1061.38 290.095C1061.63 274.303 1058.27 262.615 1051.31 255.03C1044.47 247.321 1032.66 243.466 1015.87 243.466C1005.3 243.466 995.602 245.953 986.773 250.927C977.945 255.776 971.79 263.859 968.308 275.174L931.938 263.983C936.912 246.699 946.362 232.959 960.288 222.763C974.339 212.567 992.99 207.469 1016.24 207.469C1034.27 207.469 1049.94 210.578 1063.24 216.795C1076.67 222.888 1086.5 232.586 1092.71 245.891C1095.95 252.481 1097.94 259.444 1098.68 266.781C1099.43 274.117 1099.8 282.013 1099.8 290.468V414.5H1065.3V368.431L1072.01 374.399C1063.68 389.818 1053.05 401.32 1040.12 408.905C1027.31 416.365 1011.52 420.095 992.742 420.095ZM999.643 388.201C1010.71 388.201 1020.22 386.274 1028.18 382.42C1036.14 378.441 1042.54 373.405 1047.39 367.312C1052.24 361.219 1055.41 354.878 1056.9 348.287C1059.02 342.319 1060.2 335.604 1060.45 328.144C1060.82 320.683 1061.01 314.715 1061.01 310.239L1073.69 314.901C1061.38 316.766 1050.19 318.445 1040.12 319.937C1030.04 321.429 1020.91 322.921 1012.7 324.414C1004.62 325.781 997.405 327.46 991.063 329.449C985.716 331.315 980.929 333.553 976.701 336.164C972.598 338.775 969.303 341.946 966.816 345.676C964.454 349.407 963.272 353.945 963.272 359.292C963.272 364.514 964.578 369.364 967.189 373.84C969.8 378.192 973.779 381.673 979.126 384.285C984.473 386.896 991.312 388.201 999.643 388.201ZM1242.8 420.095C1223.52 420.095 1207.36 415.433 1194.3 406.107C1181.25 396.657 1171.36 383.912 1164.65 367.871C1157.93 351.831 1154.57 333.739 1154.57 313.596C1154.57 293.452 1157.87 275.36 1164.46 259.32C1171.17 243.28 1181 230.659 1193.93 221.458C1206.99 212.132 1223.03 207.469 1242.05 207.469C1260.95 207.469 1277.24 212.132 1290.92 221.458C1304.72 230.659 1315.35 243.28 1322.81 259.32C1330.27 275.236 1334 293.328 1334 313.596C1334 333.739 1330.27 351.893 1322.81 368.058C1315.47 384.098 1304.97 396.781 1291.29 406.107C1277.74 415.433 1261.57 420.095 1242.8 420.095ZM1148.05 504.027V213.065H1182.74V357.986H1187.21V504.027H1148.05ZM1237.39 384.844C1249.82 384.844 1260.08 381.673 1268.16 375.332C1276.37 368.991 1282.46 360.473 1286.44 349.78C1290.54 338.962 1292.6 326.9 1292.6 313.596C1292.6 300.415 1290.54 288.479 1286.44 277.785C1282.46 267.092 1276.31 258.574 1267.98 252.233C1259.64 245.891 1249.01 242.72 1236.08 242.72C1223.9 242.72 1213.82 245.705 1205.87 251.673C1198.03 257.641 1192.19 265.972 1188.33 276.666C1184.6 287.359 1182.74 299.669 1182.74 313.596C1182.74 327.522 1184.6 339.832 1188.33 350.526C1192.06 361.219 1197.97 369.612 1206.05 375.705C1214.14 381.798 1224.58 384.844 1237.39 384.844ZM1395.13 504.027L1434.11 397.9L1434.67 429.235L1346.82 213.065H1387.48L1453.13 379.995H1441.2L1503.87 213.065H1543.41L1432.25 504.027H1395.13ZM1572.63 414.5V145.919H1611.61V271.257L1724.08 145.919H1772.57L1653.76 277.039L1781.34 414.5H1731.35L1611.61 286.178V414.5H1572.63ZM1864.48 420.095C1849.56 420.095 1837.06 417.36 1826.99 411.889C1816.92 406.293 1809.27 398.957 1804.05 389.88C1798.95 380.679 1796.4 370.607 1796.4 359.665C1796.4 349.469 1798.2 340.516 1801.81 332.807C1805.41 325.097 1810.76 318.569 1817.85 313.223C1824.94 307.752 1833.64 303.337 1843.96 299.98C1852.91 297.369 1863.05 295.069 1874.36 293.079C1885.68 291.09 1897.55 289.225 1909.99 287.484C1922.55 285.743 1934.98 284.002 1947.29 282.261L1933.11 290.095C1933.36 274.303 1930.01 262.615 1923.04 255.03C1916.2 247.321 1904.39 243.466 1887.61 243.466C1877.04 243.466 1867.34 245.953 1858.51 250.927C1849.68 255.776 1843.53 263.859 1840.04 275.174L1803.67 263.983C1808.65 246.699 1818.1 232.959 1832.02 222.763C1846.07 212.567 1864.73 207.469 1887.98 207.469C1906.01 207.469 1921.68 210.578 1934.98 216.795C1948.41 222.888 1958.23 232.586 1964.45 245.891C1967.68 252.481 1969.67 259.444 1970.42 266.781C1971.16 274.117 1971.54 282.013 1971.54 290.468V414.5H1937.03V368.431L1943.75 374.399C1935.42 389.818 1924.78 401.32 1911.85 408.905C1899.04 416.365 1883.25 420.095 1864.48 420.095ZM1871.38 388.201C1882.44 388.201 1891.96 386.274 1899.92 382.42C1907.87 378.441 1914.28 373.405 1919.13 367.312C1923.98 361.219 1927.15 354.878 1928.64 348.287C1930.75 342.319 1931.93 335.604 1932.18 328.144C1932.56 320.683 1932.74 314.715 1932.74 310.239L1945.42 314.901C1933.11 316.766 1921.92 318.445 1911.85 319.937C1901.78 321.429 1892.64 322.921 1884.43 324.414C1876.35 325.781 1869.14 327.46 1862.8 329.449C1857.45 331.315 1852.66 333.553 1848.44 336.164C1844.33 338.775 1841.04 341.946 1838.55 345.676C1836.19 349.407 1835.01 353.945 1835.01 359.292C1835.01 364.514 1836.31 369.364 1838.92 373.84C1841.54 378.192 1845.52 381.673 1850.86 384.285C1856.21 386.896 1863.05 388.201 1871.38 388.201ZM2023.7 414.5V140.324H2062.68V414.5H2023.7ZM2175.58 420.095C2160.66 420.095 2148.16 417.36 2138.09 411.889C2128.02 406.293 2120.37 398.957 2115.15 389.88C2110.05 380.679 2107.5 370.607 2107.5 359.665C2107.5 349.469 2109.3 340.516 2112.91 332.807C2116.51 325.097 2121.86 318.569 2128.95 313.223C2136.04 307.752 2144.74 303.337 2155.06 299.98C2164.01 297.369 2174.15 295.069 2185.46 293.079C2196.78 291.09 2208.65 289.225 2221.09 287.484C2233.65 285.743 2246.08 284.002 2258.39 282.261L2244.21 290.095C2244.46 274.303 2241.11 262.615 2234.14 255.03C2227.3 247.321 2215.49 243.466 2198.71 243.466C2188.14 243.466 2178.44 245.953 2169.61 250.927C2160.78 255.776 2154.63 263.859 2151.14 275.174L2114.77 263.983C2119.75 246.699 2129.2 232.959 2143.12 222.763C2157.17 212.567 2175.83 207.469 2199.08 207.469C2217.11 207.469 2232.78 210.578 2246.08 216.795C2259.51 222.888 2269.33 232.586 2275.55 245.891C2278.78 252.481 2280.77 259.444 2281.52 266.781C2282.26 274.117 2282.64 282.013 2282.64 290.468V414.5H2248.13V368.431L2254.85 374.399C2246.52 389.818 2235.88 401.32 2222.95 408.905C2210.14 416.365 2194.35 420.095 2175.58 420.095ZM2182.48 388.201C2193.55 388.201 2203.06 386.274 2211.02 382.42C2218.97 378.441 2225.38 373.405 2230.23 367.312C2235.08 361.219 2238.25 354.878 2239.74 348.287C2241.85 342.319 2243.03 335.604 2243.28 328.144C2243.66 320.683 2243.84 314.715 2243.84 310.239L2256.52 314.901C2244.21 316.766 2233.02 318.445 2222.95 319.937C2212.88 321.429 2203.74 322.921 2195.53 324.414C2187.45 325.781 2180.24 327.46 2173.9 329.449C2168.55 331.315 2163.76 333.553 2159.54 336.164C2155.43 338.775 2152.14 341.946 2149.65 345.676C2147.29 349.407 2146.11 353.945 2146.11 359.292C2146.11 364.514 2147.41 369.364 2150.03 373.84C2152.64 378.192 2156.62 381.673 2161.96 384.285C2167.31 386.896 2174.15 388.201 2182.48 388.201ZM2572.42 414.5L2572.61 288.976C2572.61 274.428 2568.87 263.113 2561.41 255.03C2553.95 246.824 2544.13 242.72 2531.95 242.72C2524.48 242.72 2517.65 244.461 2511.43 247.943C2505.34 251.3 2500.36 256.398 2496.51 263.237C2492.78 269.951 2490.91 278.407 2490.91 288.603L2472.07 279.091C2471.83 264.916 2474.81 252.481 2481.03 241.788C2487.37 231.094 2495.95 222.825 2506.77 216.981C2517.58 211.013 2529.71 208.029 2543.14 208.029C2564.9 208.029 2581.74 214.557 2593.68 227.613C2605.62 240.669 2611.59 258.014 2611.59 279.65L2611.4 414.5H2572.42ZM2330.88 414.5V213.065H2365.57V271.257H2370.05V414.5H2330.88ZM2451.74 414.5L2451.93 289.722C2451.93 275.049 2448.2 263.548 2440.74 255.217C2433.4 246.886 2423.52 242.72 2411.08 242.72C2398.77 242.72 2388.83 246.948 2381.24 255.403C2373.78 263.859 2370.05 274.925 2370.05 288.603L2351.4 276.666C2351.4 263.486 2354.57 251.735 2360.91 241.415C2367.25 231.094 2375.83 222.95 2386.65 216.981C2397.47 211.013 2409.72 208.029 2423.39 208.029C2437.69 208.029 2449.88 211.075 2459.95 217.168C2470.02 223.136 2477.67 231.529 2482.89 242.347C2488.24 253.165 2490.91 265.724 2490.91 280.023L2490.73 414.5H2451.74Z" fill="url(#paint0_linear_422_837)"/>
<defs>
<linearGradient id="paint0_linear_422_837" x1="637.257" y1="119.692" x2="2635.76" y2="404.439" gradientUnits="userSpaceOnUse">
<stop stop-color="#F76454"/>
<stop offset="1" stop-color="#FC9F0A"/>
</linearGradient>
</defs>
</svg>
